<mxfile host="app.diagrams.net" modified="2024-01-29T04:00:45.592Z" agent="Mozilla/5.0 (Windows NT 10.0; Win64; x64) AppleWebKit/537.36 (KHTML, like Gecko) Chrome/120.0.0.0 Whale/3.24.223.21 Safari/537.36" version="23.0.2" etag="6GFkvmcWAvuNFMhTVy-x" type="github">
  <diagram name="페이지-1" id="Ty3lweUEg_XUcewh4Wqz">
    <mxGraphModel>
      <root>
        <mxCell id="0" />
        <mxCell id="1" parent="0" />
      </root>
    </mxGraphModel>
  </diagram>
</mxfile>
